# File created by Blade
# Date/Time:  Tue Sep 30 19:36:50 2014
#---------------------------------------------------------
:version 1.10
:name HOM
:units
  mass 1.0
  length 1.000000
  angle deg
:documentation
     Acclaim Skeleton File
:root
   axis xyz
   order TX TY TZ RX RY RZ
   position 0.000000 0.000000 0.000000
   orientation 0 0 0
:bonedata
   begin
      id 1
      name Spine_dum
      direction 0.000000 1.000000 0.000000
      length 3.241213
      axis 0.0 0.0 0.0 xyz
   end
   begin
      id 2
      name LeftUpLeg_dum
      direction 1.000000 0.000000 0.000000
      length 3.434019
      axis 0.0 0.0 0.0 xyz
   end
   begin
      id 3
      name RightUpLeg_dum
      direction -1.000000 0.000000 0.000000
      length 3.434019
      axis 0.0 0.0 0.0 xyz
   end
   begin
      id 4
      name Spine
      direction 0.000000 1.000000 0.000000
      length 0.000000
      axis 0.0 0.0 0.0 xyz
      dof rx ry rz
   end
   begin
      id 5
      name Spine_dum1
      direction 0.000000 1.000000 0.000000
      length 18.382958
      axis 0.0 0.0 0.0 xyz
   end
   begin
      id 6
      name Spine_dum2
      direction 0.000000 1.000000 0.000000
      length 12.828261
      axis 0.0 0.0 0.0 xyz
   end
   begin
      id 7
      name Spine_dum3
      direction 0.000000 1.000000 0.000000
      length 12.828261
      axis 0.0 0.0 0.0 xyz
   end
   begin
      id 8
      name Head
      direction 0.000000 1.000000 0.000000
      length 4.527550
      axis 0.0 0.0 0.0 xyz
      dof rx ry rz
   end
   begin
      id 9
      name LeftShoulder
      direction 1.000000 0.000000 0.000000
      length 7.748055
      axis 0.0 0.0 -90.0 xyz
      dof rx ry rz
   end
   begin
      id 10
      name LeftArm
      direction 1.000000 0.000000 0.000000
      length 10.635614
      axis 0.0 0.0 -90.0 xyz
      dof rx ry rz
   end
   begin
      id 11
      name LeftForeArm
      direction 1.000000 0.000000 0.000000
      length 8.346755
      axis 0.0 0.0 -90.0 xyz
      dof ry rz rx
   end
   begin
      id 12
      name LeftHand
      direction 0.000000 0.000000 0.000000
      length 0.000000
      axis 0.0 0.0 -90.0 xyz
      dof rx ry rz
   end
   begin
      id 13
      name LeftHand_dum1
      direction 0.000000 0.000000 0.000000
      length 0.000000
      axis 0.0 0.0 -90.0 xyz
   end
   begin
      id 14
      name LeftHand_dum2
      direction 1.000000 0.000000 0.000000
      length 3.937000
      axis 0.0 0.0 -90.0 xyz
   end
   begin
      id 15
      name LeftHandThumb1
      direction 0.000000 0.000000 1.000000
      length 3.937000
      axis 0.0 0.0 -90.0 xyz
      dof rx rz ry
   end
   begin
      id 16
      name RightShoulder
      direction -1.000000 0.000000 0.000000
      length 7.748055
      axis 0.0 0.0 90.0 xyz
      dof rx ry rz
   end
   begin
      id 17
      name RightArm
      direction -1.000000 0.000000 0.000000
      length 10.635614
      axis 0.0 0.0 90.0 xyz
      dof rx ry rz
   end
   begin
      id 18
      name RightForeArm
      direction -1.000000 0.000000 0.000000
      length 8.346755
      axis 0.0 0.0 90.0 xyz
      dof ry rz rx
   end
   begin
      id 19
      name RightHand
      direction 0.000000 0.000000 0.000000
      length 0.000000
      axis 0.0 0.0 90.0 xyz
      dof rx ry rz
   end
   begin
      id 20
      name RightHand_dum1
      direction 0.000000 0.000000 0.000000
      length 0.000000
      axis 0.0 0.0 90.0 xyz
   end
   begin
      id 21
      name RightHand_dum2
      direction -1.000000 0.000000 0.000000
      length 3.937000
      axis 0.0 0.0 90.0 xyz
   end
   begin
      id 22
      name RightHandThumb1
      direction 0.000000 0.000000 1.000000
      length 3.937000
      axis 0.0 0.0 90.0 xyz
      dof rx rz ry
   end
   begin
      id 23
      name LeftUpLeg
      direction 0.000000 -1.000000 0.000000
      length 15.713025
      axis 0.0 0.0 0.0 xyz
      dof rx ry rz
   end
   begin
      id 24
      name LeftLeg
      direction 0.000000 -1.000000 0.000000
      length 14.435119
      axis 0.0 0.0 0.0 xyz
      dof rx ry rz
   end
   begin
      id 25
      name LeftFoot
      direction 0.000000 -0.258819 0.965926
      length 4.938895
      axis 15.0 0.0 0.0 xyz
      dof rx ry rz
   end
   begin
      id 26
      name LeftToeBase
      direction 0.000000 0.000000 1.000000
      length 2.952750
      axis 0.0 0.0 0.0 xyz
      dof rx ry rz
   end
   begin
      id 27
      name RightUpLeg
      direction 0.000000 -1.000000 0.000000
      length 15.713025
      axis 0.0 0.0 0.0 xyz
      dof rx ry rz
   end
   begin
      id 28
      name RightLeg
      direction 0.000000 -1.000000 0.000000
      length 14.435119
      axis 0.0 0.0 0.0 xyz
      dof rx ry rz
   end
   begin
      id 29
      name RightFoot
      direction 0.000000 -0.258819 0.965926
      length 4.938895
      axis 15.0 0.0 0.0 xyz
      dof rx ry rz
   end
   begin
      id 30
      name RightToeBase
      direction 0.000000 0.000000 1.000000
      length 2.952750
      axis 0.0 0.0 0.0 xyz
      dof rx ry rz
   end
:hierarchy
   begin
      root Spine_dum LeftUpLeg_dum RightUpLeg_dum
      Spine_dum Spine
      LeftUpLeg_dum LeftUpLeg
      RightUpLeg_dum RightUpLeg
      Spine Spine_dum1 Spine_dum2 Spine_dum3
      Spine_dum1 Head
      Spine_dum2 LeftShoulder
      Spine_dum3 RightShoulder
      LeftShoulder LeftArm
      LeftArm LeftForeArm
      LeftForeArm LeftHand
      LeftHand LeftHand_dum1 LeftHand_dum2
      LeftHand_dum1 LeftHandThumb1
      RightShoulder RightArm
      RightArm RightForeArm
      RightForeArm RightHand
      RightHand RightHand_dum1 RightHand_dum2
      RightHand_dum1 RightHandThumb1
      LeftUpLeg LeftLeg
      LeftLeg LeftFoot
      LeftFoot LeftToeBase
      RightUpLeg RightLeg
      RightLeg RightFoot
      RightFoot RightToeBase
   end

# File created by Blade
# Date/Time:  Tue Sep 23 19:06:47 2014
# Frame Rate: 120.000 fps
#------------------------------------------------------
:FULLY-SPECIFIED
:DEGREES
1
root -2.035034 32.433264 -3.675198 31.892194 4.969000 0.098972
Spine -37.721385 -5.154705 3.703058
Head 10.712250 -0.879216 -5.111837
LeftShoulder -19.522757 38.523126 25.264533
LeftArm 59.830182 -45.521930 -60.543532
LeftForeArm 92.952269 -0.000000 -19.647160
LeftHand -0.205548 -0.000000 57.492261
LeftHandThumb1 -26.253704 0.000000 33.147579
RightShoulder -18.907594 -37.941106 -24.243695
RightArm 48.689063 27.539399 51.582931
RightForeArm 15.144113 -0.000000 -6.344921
RightHand 7.195256 -0.000000 9.498940
RightHandThumb1 -24.326973 -0.000000 -32.862282
LeftUpLeg -27.339670 0.132805 1.831551
LeftLeg 0.537233 -0.000000 -0.000000
LeftFoot -6.797320 -3.302474 -2.217001
LeftToeBase 5.289172 -0.000000 -0.000000
RightUpLeg -25.867375 -6.741146 5.262038
RightLeg -3.051295 -0.000000 0.000000
RightFoot -6.621995 -2.733042 -0.728285
RightToeBase 11.597642 -0.000000 -0.000000
2
root -2.031522 32.432641 -3.678280 31.887000 4.980775 0.108752
Spine -37.702605 -5.158781 3.705194
Head 10.659397 -0.906125 -5.094167
LeftShoulder -19.567422 38.535415 25.231173
LeftArm 59.790930 -45.480312 -60.386758
LeftForeArm 92.724025 -0.000000 -19.591550
LeftHand 0.104915 -0.000000 57.258790
LeftHandThumb1 -26.253704 0.000000 33.147579
RightShoulder -18.907854 -37.949781 -24.254391
RightArm 48.672761 27.541001 51.557711
RightForeArm 15.186429 -0.000000 -6.361884
RightHand 7.184815 -0.000000 9.466671
RightHandThumb1 -24.326973 -0.000000 -32.862282
LeftUpLeg -27.349507 0.095675 1.833295
LeftLeg 0.557278 -0.000000 -0.000000
LeftFoot -6.815961 -3.288654 -2.234444
LeftToeBase 5.325737 -0.000000 -0.000000
RightUpLeg -25.838793 -6.708294 5.221655
RightLeg -3.096753 -0.000000 0.000000
RightFoot -6.566956 -2.772931 -0.789287
RightToeBase 11.466960 -0.000000 -0.000000
3
root -2.026775 32.432557 -3.679905 31.882917 5.013637 0.115779
Spine -37.691718 -5.167729 3.710890
Head 10.615248 -0.954000 -5.060348
LeftShoulder -19.608599 38.547141 25.188178
LeftArm 59.827897 -45.410328 -60.172214
LeftForeArm 92.747663 -0.000000 -19.784690
LeftHand 0.016843 -0.000000 57.418270
LeftHandThumb1 -26.253704 0.000000 33.147579
RightShoulder -18.868059 -37.916293 -24.301291
RightArm 48.551090 27.554048 51.529958
RightForeArm 15.194865 0.000000 -6.316873
RightHand 7.170244 -0.000000 9.463797
RightHandThumb1 -24.326973 -0.000000 -32.862282
LeftUpLeg -27.363337 0.060769 1.835670
LeftLeg 0.579556 -0.000000 -0.000000
LeftFoot -6.819427 -3.277280 -2.216824
LeftToeBase 5.306585 -0.000000 -0.000000
RightUpLeg -25.856505 -6.812653 5.259121
RightLeg -3.064877 -0.000000 0.000000
RightFoot -6.634913 -2.694220 -0.685156
RightToeBase 11.596152 -0.000000 -0.000000
4
root -2.023517 32.432457 -3.682049 31.882434 5.039657 0.125114
Spine -37.683279 -5.187218 3.715617
Head 10.566852 -0.997896 -5.022240
LeftShoulder -19.604797 38.462223 25.227591
LeftArm 59.720121 -45.352497 -59.988137
LeftForeArm 92.825410 -0.000000 -19.813417
LeftHand -0.066678 -0.000000 57.365178
LeftHandThumb1 -26.253704 0.000000 33.147579
RightShoulder -18.841997 -37.924807 -24.313554
RightArm 48.497825 27.593552 51.492734
RightForeArm 15.192238 0.000000 -6.307107
RightHand 7.189664 -0.000000 9.501689
RightHandThumb1 -24.326973 -0.000000 -32.862282
LeftUpLeg -27.378060 0.026280 1.836673
LeftLeg 0.596461 -0.000000 -0.000000
LeftFoot -6.812295 -3.276599 -2.187664
LeftToeBase 5.277150 -0.000000 -0.000000
RightUpLeg -25.853866 -6.844692 5.258194
RightLeg -3.071913 -0.000000 0.000000
RightFoot -6.644131 -2.679422 -0.661548
RightToeBase 11.616149 -0.000000 -0.000000
5
root -2.019882 32.431898 -3.684022 31.883266 5.044707 0.126913
Spine -37.674729 -5.177725 3.716606
Head 10.517726 -1.048521 -5.004184
LeftShoulder -19.678027 38.500082 25.163471
LeftArm 59.858539 -45.439188 -59.993925
LeftForeArm 92.693748 -0.000000 -19.757165
LeftHand 0.353745 -0.000000 57.197797
LeftHandThumb1 -26.253704 0.000000 33.147579
RightShoulder -18.832065 -37.954328 -24.333638
RightArm 48.473763 27.638723 51.475463
RightForeArm 15.117111 -0.000000 -6.301059
RightHand 7.176967 -0.000000 9.522714
RightHandThumb1 -24.326973 -0.000000 -32.862282
LeftUpLeg -27.391415 0.019924 1.827809
LeftLeg 0.621877 -0.000000 -0.000000
LeftFoot -6.796328 -3.301634 -2.065201
LeftToeBase 5.128295 -0.000000 -0.000000
RightUpLeg -25.845642 -6.822193 5.236288
RightLeg -3.089008 -0.000000 0.000000
RightFoot -6.599442 -2.708736 -0.771066
RightToeBase 11.501494 -0.000000 -0.000000
6
root -2.017696 32.431819 -3.686569 31.885198 5.059772 0.132541
Spine -37.664344 -5.176238 3.700692
Head 10.466714 -1.122753 -4.956268
LeftShoulder -19.699829 38.480124 25.166510
LeftArm 59.927488 -45.544809 -60.027678
LeftForeArm 92.423953 0.000000 -19.595524
LeftHand 0.749166 -0.000000 56.956391
LeftHandThumb1 -26.253704 0.000000 33.147579
RightShoulder -18.815970 -37.973653 -24.344850
RightArm 48.396310 27.647803 51.389547
RightForeArm 15.190206 -0.000000 -6.318851
RightHand 7.230450 -0.000000 9.617820
RightHandThumb1 -24.326973 -0.000000 -32.862282
LeftUpLeg -27.405401 0.000025 1.831485
LeftLeg 0.626496 -0.000000 -0.000000
LeftFoot -6.823690 -3.284915 -2.176653
LeftToeBase 5.288949 -0.000000 -0.000000
RightUpLeg -25.845354 -6.836778 5.234356
RightLeg -3.100866 -0.000000 0.000000
RightFoot -6.635424 -2.716557 -0.664194
RightToeBase 11.632624 -0.000000 -0.000000
7
root -2.013702 32.431516 -3.688808 31.890117 5.070340 0.139887
Spine -37.660182 -5.173243 3.687756
Head 10.425638 -1.197928 -4.914219
LeftShoulder -19.775942 38.511408 25.097061
LeftArm 60.044932 -45.553848 -59.815910
LeftForeArm 92.361911 -0.000000 -19.764908
LeftHand 0.954354 -0.000000 56.915927
LeftHandThumb1 -26.253704 0.000000 33.147579
RightShoulder -18.779968 -37.987249 -24.397372
RightArm 48.316278 27.649566 51.349468
RightForeArm 15.022482 -0.000000 -6.288875
RightHand 7.229164 -0.000000 9.491177
RightHandThumb1 -24.326973 -0.000000 -32.862282
LeftUpLeg -27.421255 -0.006961 1.817994
LeftLeg 0.638138 -0.000000 -0.000000
LeftFoot -6.833105 -3.275093 -2.171927
LeftToeBase 5.318503 -0.000000 -0.000000
RightUpLeg -25.848677 -6.851628 5.226997
RightLeg -3.108837 -0.000000 0.000000
RightFoot -6.647861 -2.712678 -0.639048
RightToeBase 11.669968 -0.000000 -0.000000
8
root -2.010833 32.431394 -3.690412 31.894117 5.080097 0.138353
Spine -37.657777 -5.158625 3.671640
Head 10.388942 -1.303902 -4.871525
LeftShoulder -19.819601 38.490860 25.087115
LeftArm 60.089170 -45.599821 -59.707580
LeftForeArm 92.115023 -0.000000 -19.649835
LeftHand 1.278337 -0.000000 56.597365
LeftHandThumb1 -26.253704 0.000000 33.147579
RightShoulder -18.756696 -38.021516 -24.435653
RightArm 48.249688 27.629367 51.265530
RightForeArm 14.958888 0.000000 -6.315503
RightHand 7.241574 -0.000000 9.486782
RightHandThumb1 -24.326973 -0.000000 -32.862282
LeftUpLeg -27.431269 -0.013885 1.820140
LeftLeg 0.642971 -0.000000 -0.000000
LeftFoot -6.837813 -3.287186 -2.180048
LeftToeBase 5.331634 -0.000000 -0.000000
RightUpLeg -25.855449 -6.865912 5.230700
RightLeg -3.108821 -0.000000 0.000000
RightFoot -6.639657 -2.701994 -0.625629
RightToeBase 11.635985 -0.000000 -0.000000
9
root -2.007896 32.431280 -3.691870 31.903198 5.091418 0.146856
Spine -37.657144 -5.148540 3.644492
Head 10.344514 -1.425742 -4.832386
LeftShoulder -19.864453 38.482378 25.041417
LeftArm 60.146462 -45.683818 -59.515355
LeftForeArm 91.975431 -0.000000 -19.640662
LeftHand 1.424460 -0.000000 56.506094
LeftHandThumb1 -26.253704 0.000000 33.147579
RightShoulder -18.748990 -38.055941 -24.472192
RightArm 48.203540 27.580378 51.153507
RightForeArm 15.013185 -0.000000 -6.413604
RightHand 7.349033 -0.000000 9.541296
RightHandThumb1 -24.326973 -0.000000 -32.862282
LeftUpLeg -27.443420 -0.016870 1.812065
LeftLeg 0.644827 -0.000000 -0.000000
LeftFoot -6.892761 -3.332507 -2.362999
LeftToeBase 5.618170 -0.000000 -0.000000
RightUpLeg -25.860297 -6.897517 5.236048
RightLeg -3.123428 -0.000000 0.000000
RightFoot -6.637326 -2.692022 -0.635895
RightToeBase 11.642736 -0.000000 -0.000000
